<mxfile host="Electron" modified="2023-04-07T10:11:53.003Z" agent="Mozilla/5.0 (X11; Linux x86_64) AppleWebKit/537.36 (KHTML, like Gecko) draw.io/21.1.2 Chrome/106.0.5249.199 Electron/21.4.3 Safari/537.36" etag="wRZRLGTb6Nj8687bV7sI" version="21.1.2" type="device">
  <diagram name="第 1 页" id="LLqZjH4Vd1G0PlpoXgU2">
    <mxGraphModel dx="1457" dy="621" grid="1" gridSize="10" guides="1" tooltips="1" connect="1" arrows="1" fold="1" page="0" pageScale="1" pageWidth="827" pageHeight="1169" math="0" shadow="0">
      <root>
        <mxCell id="0" />
        <mxCell id="1" parent="0" />
        <mxCell id="V70RCcip0txrX-Vcz3-7-3" value="" style="edgeStyle=orthogonalEdgeStyle;orthogonalLoop=1;jettySize=auto;html=1;rounded=0;" edge="1" parent="1" source="V70RCcip0txrX-Vcz3-7-1" target="V70RCcip0txrX-Vcz3-7-2">
          <mxGeometry relative="1" as="geometry" />
        </mxCell>
        <mxCell id="V70RCcip0txrX-Vcz3-7-15" style="edgeStyle=orthogonalEdgeStyle;orthogonalLoop=1;jettySize=auto;html=1;exitX=1;exitY=0.5;exitDx=0;exitDy=0;entryX=0.5;entryY=0;entryDx=0;entryDy=0;rounded=0;" edge="1" parent="1" source="V70RCcip0txrX-Vcz3-7-1" target="V70RCcip0txrX-Vcz3-7-5">
          <mxGeometry relative="1" as="geometry" />
        </mxCell>
        <mxCell id="V70RCcip0txrX-Vcz3-7-1" value="&lt;font data-font-src=&quot;https://fonts.googleapis.com/css?family=Roboto+Mono&quot; face=&quot;Roboto Mono&quot;&gt;GenericOptionValue&lt;/font&gt;" style="rounded=1;whiteSpace=wrap;html=1;fillColor=#f5f5f5;fontColor=#333333;strokeColor=#666666;" vertex="1" parent="1">
          <mxGeometry x="120" y="70" width="140" height="40" as="geometry" />
        </mxCell>
        <mxCell id="V70RCcip0txrX-Vcz3-7-19" value="" style="orthogonalLoop=1;jettySize=auto;html=1;exitX=0.5;exitY=1;exitDx=0;exitDy=0;entryX=0;entryY=0.5;entryDx=0;entryDy=0;edgeStyle=orthogonalEdgeStyle;rounded=0;" edge="1" parent="1" source="V70RCcip0txrX-Vcz3-7-2" target="V70RCcip0txrX-Vcz3-7-16">
          <mxGeometry x="0.0222" relative="1" as="geometry">
            <Array as="points">
              <mxPoint x="-85" y="260" />
            </Array>
            <mxPoint as="offset" />
          </mxGeometry>
        </mxCell>
        <mxCell id="V70RCcip0txrX-Vcz3-7-28" value="isClass" style="edgeLabel;html=1;align=center;verticalAlign=middle;resizable=0;points=[];" vertex="1" connectable="0" parent="V70RCcip0txrX-Vcz3-7-19">
          <mxGeometry x="-0.6224" y="-2" relative="1" as="geometry">
            <mxPoint as="offset" />
          </mxGeometry>
        </mxCell>
        <mxCell id="V70RCcip0txrX-Vcz3-7-2" value="&lt;font data-font-src=&quot;https://fonts.googleapis.com/css?family=Roboto+Mono&quot; face=&quot;Roboto Mono&quot;&gt;OptionValueBase&amp;lt;&lt;b&gt;DataType, true&lt;/b&gt;&amp;gt;&lt;/font&gt;" style="whiteSpace=wrap;html=1;rounded=1;fillColor=#d5e8d4;strokeColor=#82b366;" vertex="1" parent="1">
          <mxGeometry x="-200" y="150" width="230" height="40" as="geometry" />
        </mxCell>
        <mxCell id="V70RCcip0txrX-Vcz3-7-10" style="orthogonalLoop=1;jettySize=auto;html=1;exitX=0.5;exitY=1;exitDx=0;exitDy=0;entryX=0.5;entryY=0;entryDx=0;entryDy=0;rounded=0;" edge="1" parent="1" source="V70RCcip0txrX-Vcz3-7-5" target="V70RCcip0txrX-Vcz3-7-9">
          <mxGeometry relative="1" as="geometry" />
        </mxCell>
        <mxCell id="V70RCcip0txrX-Vcz3-7-13" style="orthogonalLoop=1;jettySize=auto;html=1;exitX=0.5;exitY=1;exitDx=0;exitDy=0;rounded=0;" edge="1" parent="1" source="V70RCcip0txrX-Vcz3-7-5" target="V70RCcip0txrX-Vcz3-7-7">
          <mxGeometry relative="1" as="geometry" />
        </mxCell>
        <mxCell id="V70RCcip0txrX-Vcz3-7-27" style="edgeStyle=orthogonalEdgeStyle;rounded=0;orthogonalLoop=1;jettySize=auto;html=1;exitX=0;exitY=0.5;exitDx=0;exitDy=0;entryX=1;entryY=0.5;entryDx=0;entryDy=0;" edge="1" parent="1" source="V70RCcip0txrX-Vcz3-7-5" target="V70RCcip0txrX-Vcz3-7-11">
          <mxGeometry relative="1" as="geometry" />
        </mxCell>
        <mxCell id="V70RCcip0txrX-Vcz3-7-5" value="&lt;font data-font-src=&quot;https://fonts.googleapis.com/css?family=Roboto+Mono&quot; face=&quot;Roboto Mono&quot;&gt;OptionValueCopy&lt;/font&gt;" style="whiteSpace=wrap;html=1;rounded=1;fillColor=#dae8fc;strokeColor=#6c8ebf;" vertex="1" parent="1">
          <mxGeometry x="321" y="150" width="120" height="40" as="geometry" />
        </mxCell>
        <mxCell id="V70RCcip0txrX-Vcz3-7-7" value="&lt;font data-font-src=&quot;https://fonts.googleapis.com/css?family=Roboto+Mono&quot; face=&quot;Roboto Mono&quot;&gt;OptionValue&amp;lt;&lt;b&gt;boolOrDefault&lt;/b&gt;&amp;gt;&lt;/font&gt;" style="whiteSpace=wrap;html=1;rounded=1;fillColor=#ffe6cc;strokeColor=#d79b00;" vertex="1" parent="1">
          <mxGeometry x="210" y="240" width="190" height="40" as="geometry" />
        </mxCell>
        <mxCell id="V70RCcip0txrX-Vcz3-7-9" value="&lt;font data-font-src=&quot;https://fonts.googleapis.com/css?family=Roboto+Mono&quot; face=&quot;Roboto Mono&quot;&gt;OptionValue&amp;lt;&lt;b&gt;string&lt;/b&gt;&amp;gt;&lt;/font&gt;" style="whiteSpace=wrap;html=1;rounded=1;fillColor=#ffe6cc;strokeColor=#d79b00;" vertex="1" parent="1">
          <mxGeometry x="410" y="240" width="190" height="40" as="geometry" />
        </mxCell>
        <mxCell id="V70RCcip0txrX-Vcz3-7-25" style="edgeStyle=orthogonalEdgeStyle;orthogonalLoop=1;jettySize=auto;html=1;exitX=0.5;exitY=1;exitDx=0;exitDy=0;entryX=1;entryY=0.5;entryDx=0;entryDy=0;rounded=0;" edge="1" parent="1" source="V70RCcip0txrX-Vcz3-7-11" target="V70RCcip0txrX-Vcz3-7-16">
          <mxGeometry relative="1" as="geometry" />
        </mxCell>
        <mxCell id="V70RCcip0txrX-Vcz3-7-26" value="isNotClass" style="edgeLabel;html=1;align=center;verticalAlign=middle;resizable=0;points=[];" vertex="1" connectable="0" parent="V70RCcip0txrX-Vcz3-7-25">
          <mxGeometry x="-0.5086" y="-2" relative="1" as="geometry">
            <mxPoint x="2" y="-4" as="offset" />
          </mxGeometry>
        </mxCell>
        <mxCell id="V70RCcip0txrX-Vcz3-7-11" value="&lt;font data-font-src=&quot;https://fonts.googleapis.com/css?family=Roboto+Mono&quot; face=&quot;Roboto Mono&quot;&gt;OptionValueBase&amp;lt;&lt;b&gt;DataType, false&lt;/b&gt;&amp;gt;&lt;/font&gt;" style="whiteSpace=wrap;html=1;rounded=1;fillColor=#d5e8d4;strokeColor=#82b366;" vertex="1" parent="1">
          <mxGeometry x="60" y="150" width="240" height="40" as="geometry" />
        </mxCell>
        <mxCell id="V70RCcip0txrX-Vcz3-7-16" value="&lt;font data-font-src=&quot;https://fonts.googleapis.com/css?family=Roboto+Mono&quot; face=&quot;Roboto Mono&quot;&gt;OptionValue&amp;lt;&lt;b&gt;DataType&lt;/b&gt;&amp;gt;&lt;/font&gt;" style="whiteSpace=wrap;html=1;rounded=1;fillColor=#ffe6cc;strokeColor=#d79b00;" vertex="1" parent="1">
          <mxGeometry x="-30" y="240" width="160" height="40" as="geometry" />
        </mxCell>
      </root>
    </mxGraphModel>
  </diagram>
</mxfile>
